<svg width="585" height="260" xmlns="http://www.w3.org/2000/svg"><style>ellipse,line,path,rect{stroke:#000;stroke-width:2}.red{fill:#f99}.yellow{fill:#ff9}.green{fill:#9f9}.teal{fill:#9ff}.blue{fill:#99f}.purple{fill:#f9f}text{text-anchor:left;font-family:Helvetica,Arial,sans-serif;font-weight:700;font-size:18px;fill:#000}path{fill:transparent}</style><g class="headings"><text x="10" y="36">Jessica/project</text><text x="10" y="86">Daniel/project</text><text x="10" y="136">Nathan/project</text><text x="10" y="186">Sam/project</text><text x="10" y="236">John/project</text></g><path d="M160 80h400"/><path d="M160 80l50-50 50 50"/><path d="M310 130h100l50-50"/><path d="M210 130h100l50-50"/><path d="M160 80l150 150 50-50"/><path d="M260 180h200l-50-50"/><ellipse cx="210" cy="30" rx="15" ry="15" class="green"/><g transform="translate(160 80)"><ellipse rx="15" ry="15" class="red"/><ellipse cx="100" rx="15" ry="15" class="red"/><ellipse cx="200" rx="15" ry="15" class="red"/><ellipse cx="300" rx="15" ry="15" class="red"/><ellipse cx="400" rx="15" ry="15" class="red"/></g><g transform="translate(210 130)"><ellipse rx="15" ry="15" class="blue"/><ellipse cx="100" rx="15" ry="15" class="blue"/><ellipse cx="200" rx="15" ry="15" class="blue"/></g><g transform="translate(260 180)"><ellipse rx="15" ry="15" class="yellow"/><ellipse cx="100" rx="15" ry="15" class="yellow"/><ellipse cx="200" rx="15" ry="15" class="yellow"/></g><ellipse cx="310" cy="230" rx="15" ry="15" class="teal"/></svg>